<svg width="15" height="15" fill="none" xmlns="http://www.w3.org/2000/svg"><path d="M7.5 11.821a.732.732 0 100-1.465.732.732 0 000 1.465z" fill="#828282"/><path d="M7.5 0A7.496 7.496 0 000 7.5C0 11.645 3.353 15 7.5 15c4.144 0 7.5-3.354 7.5-7.5C15 3.355 11.644 0 7.5 0zm0 13.828A6.325 6.325 0 011.17 7.5 6.325 6.325 0 017.5 1.172 6.325 6.325 0 0113.827 7.5 6.325 6.325 0 017.5 13.828z" fill="#828282"/><path d="M7.5 3.765a2.346 2.346 0 00-2.344 2.343.586.586 0 101.171 0 1.173 1.173 0 012.344 0c0 .647-.526 1.172-1.172 1.172a.586.586 0 00-.586.586v1.465a.586.586 0 101.172 0v-.953a2.348 2.348 0 001.758-2.27 2.346 2.346 0 00-2.344-2.343z" fill="#828282"/></svg>