<svg width="16" height="17" fill="none" xmlns="http://www.w3.org/2000/svg"><path d="M12.962 10.904c-.976 0-1.847.465-2.403 1.184L5.896 9.484a3.044 3.044 0 00-.003-2.006l4.659-2.6a3.03 3.03 0 002.407 1.19c1.67 0 3.034-1.36 3.034-3.034A3.037 3.037 0 0012.959 0a3.037 3.037 0 00-2.862 4.039l-4.656 2.6a3.02 3.02 0 00-2.407-1.19A3.039 3.039 0 000 8.482a3.035 3.035 0 005.448 1.84l4.66 2.604a3.02 3.02 0 00-.177 1.011 3.04 3.04 0 003.035 3.035A3.037 3.037 0 0016 13.938a3.04 3.04 0 00-3.038-3.034zm0-9.949c1.149 0 2.083.934 2.083 2.083a2.085 2.085 0 01-2.083 2.083 2.085 2.085 0 01-2.083-2.083c0-1.149.938-2.083 2.083-2.083zm-9.924 9.61A2.085 2.085 0 01.955 8.484a2.084 2.084 0 014.166 0 2.087 2.087 0 01-2.083 2.083zm9.924 5.453a2.085 2.085 0 01-2.083-2.083 2.084 2.084 0 014.166 0 2.085 2.085 0 01-2.083 2.083z" fill="#C61143"/></svg>