<svg width="15" height="15" fill="none" xmlns="http://www.w3.org/2000/svg"><path d="M10.576 11.484v1.172A2.346 2.346 0 018.232 15H2.344A2.346 2.346 0 010 12.656V2.344A2.346 2.346 0 012.344 0h5.888a2.346 2.346 0 012.344 2.344v1.172a.586.586 0 11-1.172 0V2.344c0-.646-.525-1.172-1.172-1.172H2.344c-.646 0-1.172.526-1.172 1.172v10.312c0 .646.526 1.172 1.172 1.172h5.888c.647 0 1.172-.526 1.172-1.172v-1.172a.586.586 0 111.172 0zm3.995-4.99L13.259 5.18a.586.586 0 10-.829.829l.934.933H6.328a.586.586 0 100 1.172h7.035l-.933.934a.586.586 0 10.829.828l1.312-1.312c.571-.571.571-1.5 0-2.072z" fill="#828282"/></svg>