<svg width="36" height="35" fill="none" xmlns="http://www.w3.org/2000/svg"><path d="M16.85 20.248c.235.236.507.354.813.354.307 0 .578-.118.814-.354L34.974 3.752c.235-.236.353-.507.353-.814 0-.307-.118-.578-.353-.814l-1.77-1.77A1.12 1.12 0 0032.389 0a1.12 1.12 0 00-.814.354L17.663 14.265 3.753.354A1.12 1.12 0 002.937 0c-.307 0-.578.118-.814.354l-1.77 1.77A1.117 1.117 0 000 2.938c0 .307.118.579.354.814L16.85 20.248z" fill="#C61143"/><path d="M33.204 13.947a1.12 1.12 0 00-.815-.354 1.12 1.12 0 00-.814.354l-13.912 13.91-13.911-13.91a1.119 1.119 0 00-.814-.355c-.307 0-.579.118-.814.354l-1.77 1.77A1.118 1.118 0 000 16.53c0 .307.118.579.354.815L16.849 33.84c.236.236.508.354.814.354.307 0 .578-.118.814-.354l16.496-16.495c.236-.236.353-.508.353-.814 0-.307-.118-.578-.353-.814l-1.77-1.77z" fill="#C61143"/></svg>