<svg width="5" height="9" viewBox="0 0 5 9" fill="none" xmlns="http://www.w3.org/2000/svg">
<path d="M4.91421 4.9107C4.97144 4.85346 5 4.78753 5 4.71309C5 4.63865 4.97147 4.57284 4.91421 4.51564L0.910696 0.51194C0.853434 0.454707 0.787535 0.426272 0.71309 0.426272C0.638646 0.426272 0.572717 0.454888 0.515484 0.51194L0.0858486 0.941455C0.0285859 0.998688 -3.46867e-07 1.06462 -3.43609e-07 1.13915C-3.40358e-07 1.21351 0.0285859 1.2794 0.0858486 1.33664L3.46218 4.71309L0.0858489 8.08939C0.0285862 8.14666 -3.44203e-08 8.21256 -3.11662e-08 8.287C-2.79108e-08 8.36147 0.0285862 8.42737 0.0858489 8.48461L0.515485 8.91406C0.572717 8.97141 0.638526 9 0.713091 9C0.787655 9 0.853464 8.97132 0.910697 8.91406L4.91421 4.9107Z" fill="#B7B7B7"/>
</svg>
