<svg width="39" height="39" viewBox="0 0 39 39" fill="none" xmlns="http://www.w3.org/2000/svg">
<path d="M19.4999 0.0742188C8.78652 0.0742188 0.0712891 8.78945 0.0712891 19.5028C0.0712891 30.2161 8.78652 38.9314 19.4999 38.9314C30.2132 38.9314 38.9284 30.2161 38.9284 19.5028C38.9284 8.78945 30.2132 0.0742188 19.4999 0.0742188ZM29.347 15.3856L18.8231 25.9092C18.5073 26.2249 18.0929 26.3838 17.6784 26.3838C17.264 26.3838 16.8495 26.2249 16.5338 25.9092L11.272 20.6474C10.6388 20.0145 10.6388 18.9911 11.272 18.3582C11.9049 17.7249 12.928 17.7249 13.5612 18.3582L17.6784 22.4754L27.0577 13.0964C27.6907 12.4631 28.7137 12.4631 29.347 13.0964C29.9799 13.7293 29.9799 14.7524 29.347 15.3856Z" fill="#007A0F"/>
</svg>
