<svg width="39" height="39" viewBox="0 0 39 39" fill="none" xmlns="http://www.w3.org/2000/svg">
<path d="M19.4989 0.0742188C8.78554 0.0742188 0.0703125 8.78945 0.0703125 19.5028C0.0703125 30.2161 8.78554 38.9314 19.4989 38.9314C30.2122 38.9314 38.9275 30.2161 38.9275 19.5028C38.9275 8.78945 30.2122 0.0742188 19.4989 0.0742188ZM29.346 15.3856L18.8221 25.9092C18.5063 26.2249 18.0919 26.3838 17.6775 26.3838C17.263 26.3838 16.8486 26.2249 16.5328 25.9092L11.271 20.6474C10.6378 20.0145 10.6378 18.9911 11.271 18.3582C11.904 17.7249 12.927 17.7249 13.5603 18.3582L17.6775 22.4754L27.0567 13.0964C27.6897 12.4631 28.7128 12.4631 29.346 13.0964C29.9789 13.7293 29.9789 14.7524 29.346 15.3856Z" fill="#055F7A"/>
</svg>
