<svg width="15" height="15" viewBox="0 0 15 15" fill="none" xmlns="http://www.w3.org/2000/svg">
<path d="M7.49927 11.8213C7.90377 11.8213 8.23169 11.4934 8.23169 11.0889C8.23169 10.6844 7.90377 10.3564 7.49927 10.3564C7.09476 10.3564 6.76685 10.6844 6.76685 11.0889C6.76685 11.4934 7.09476 11.8213 7.49927 11.8213Z" fill="#828282"/>
<path d="M7.49927 0C3.35423 0 -0.000732422 3.3544 -0.000732422 7.5C-0.000732422 11.645 3.35367 15 7.49927 15C11.6443 15 14.9993 11.6456 14.9993 7.5C14.9993 3.35496 11.6449 0 7.49927 0ZM7.49927 13.8281C4.00189 13.8281 1.17114 10.9978 1.17114 7.5C1.17114 4.00263 4.00143 1.17188 7.49927 1.17188C10.9966 1.17188 13.8274 4.00216 13.8274 7.5C13.8274 10.9974 10.9971 13.8281 7.49927 13.8281Z" fill="#828282"/>
<path d="M7.49927 3.76465C6.20692 3.76465 5.15552 4.81605 5.15552 6.1084C5.15552 6.43201 5.41784 6.69434 5.74146 6.69434C6.06507 6.69434 6.32739 6.43201 6.32739 6.1084C6.32739 5.46223 6.8531 4.93652 7.49927 4.93652C8.14544 4.93652 8.67114 5.46223 8.67114 6.1084C8.67114 6.75457 8.14544 7.28027 7.49927 7.28027C7.17565 7.28027 6.91333 7.5426 6.91333 7.86621V9.33105C6.91333 9.65467 7.17565 9.91699 7.49927 9.91699C7.82288 9.91699 8.08521 9.65467 8.08521 9.33105V8.378C9.09495 8.11717 9.84302 7.19851 9.84302 6.1084C9.84302 4.81605 8.79161 3.76465 7.49927 3.76465Z" fill="#828282"/>
</svg>
