<svg width="18" height="12" viewBox="0 0 18 12" fill="none" xmlns="http://www.w3.org/2000/svg">
<path d="M12.75 0.439633C12.467 0.156005 12.0901 0 11.6891 0H0.750119C0.446715 0 0.173341 0.182738 0.0572526 0.462887C-0.0590186 0.74322 0.00506787 1.06548 0.219849 1.28026L4.86795 5.92836C4.88791 5.94832 4.89762 5.97414 4.89762 5.99996C4.89762 6.02596 4.88791 6.05177 4.86832 6.07118L0.219849 10.7196C0.0054341 10.9342 -0.0586524 11.2567 0.0572526 11.5372C0.173341 11.8174 0.446715 11.9999 0.750119 11.9999H11.6891C12.0898 11.9999 12.4666 11.8439 12.75 11.5605L17.7803 6.53022C18.0733 6.23744 18.0733 5.76265 17.7803 5.46969L12.75 0.439633ZM11.6891 10.4999H2.56102L5.92922 7.13172C6.04367 7.0171 6.12991 6.88655 6.20223 6.74995H8.25007C8.66407 6.74995 9.00007 6.41395 9.00007 5.99996C9.00007 5.58596 8.66407 5.24996 8.25007 5.24996H6.20223C6.12991 5.11355 6.04367 4.983 5.92886 4.86782L2.56102 1.49999H11.6895L16.1895 5.99996L11.6891 10.4999Z" fill="#D12552"/>
</svg>
