<svg width="16" height="17" viewBox="0 0 16 17" fill="none" xmlns="http://www.w3.org/2000/svg">
<path d="M12.9621 10.904C11.9859 10.904 11.1154 11.3692 10.5586 12.0881L5.89604 9.4837C6.00529 9.17004 6.0652 8.83172 6.0652 8.48282C6.0652 8.1304 6.00529 7.79559 5.89251 7.47841L10.5515 4.87753C11.1048 5.6 11.9789 6.06872 12.9586 6.06872C14.6291 6.06872 15.993 4.70837 15.993 3.03436C15.993 1.36035 14.6326 0 12.9586 0C11.2846 0 9.92423 1.36035 9.92423 3.03436C9.92423 3.38678 9.98414 3.72511 10.0969 4.03877L5.44141 6.63965C4.88811 5.91366 4.0141 5.44846 3.03436 5.44846C1.36388 5.44846 0 6.80881 0 8.48282C0 10.1568 1.36388 11.5172 3.03789 11.5172C4.01762 11.5172 4.89163 11.0485 5.44846 10.3225L10.1075 12.9269C9.99471 13.2441 9.93128 13.5859 9.93128 13.9383C9.93128 15.6088 11.2916 16.9727 12.9656 16.9727C14.6396 16.9727 16 15.6123 16 13.9383C16 12.2643 14.6361 10.904 12.9621 10.904ZM12.9621 0.955066C14.111 0.955066 15.0449 1.88899 15.0449 3.03789C15.0449 4.18678 14.111 5.1207 12.9621 5.1207C11.8132 5.1207 10.8793 4.18678 10.8793 3.03789C10.8793 1.88899 11.8167 0.955066 12.9621 0.955066ZM3.03789 10.5656C1.88899 10.5656 0.955066 9.63172 0.955066 8.48282C0.955066 7.33392 1.88899 6.4 3.03789 6.4C4.18678 6.4 5.1207 7.33392 5.1207 8.48282C5.1207 9.63172 4.18326 10.5656 3.03789 10.5656ZM12.9621 16.0176C11.8132 16.0176 10.8793 15.0837 10.8793 13.9348C10.8793 12.7859 11.8132 11.852 12.9621 11.852C14.111 11.852 15.0449 12.7859 15.0449 13.9348C15.0449 15.0837 14.111 16.0176 12.9621 16.0176Z" fill="#C61143"/>
</svg>
