<svg width="15" height="15" viewBox="0 0 15 15" fill="none" xmlns="http://www.w3.org/2000/svg">
<path d="M10.5762 11.4844V12.6562C10.5762 13.9486 9.5248 15 8.23242 15H2.34375C1.05137 15 0 13.9486 0 12.6562V2.34375C0 1.05137 1.05137 0 2.34375 0H8.23242C9.5248 0 10.5762 1.05137 10.5762 2.34375V3.51562C10.5762 3.83926 10.3139 4.10156 9.99023 4.10156C9.6666 4.10156 9.4043 3.83926 9.4043 3.51562V2.34375C9.4043 1.69762 8.87856 1.17188 8.23242 1.17188H2.34375C1.69762 1.17188 1.17188 1.69762 1.17188 2.34375V12.6562C1.17188 13.3024 1.69762 13.8281 2.34375 13.8281H8.23242C8.87856 13.8281 9.4043 13.3024 9.4043 12.6562V11.4844C9.4043 11.1607 9.6666 10.8984 9.99023 10.8984C10.3139 10.8984 10.5762 11.1607 10.5762 11.4844ZM14.571 6.49349L13.2589 5.18143C13.03 4.95255 12.659 4.95255 12.4302 5.18143C12.2013 5.41019 12.2013 5.78121 12.4302 6.00998L13.3635 6.94336H6.32812C6.00449 6.94336 5.74219 7.20566 5.74219 7.5293C5.74219 7.85294 6.00449 8.11523 6.32812 8.11523H13.3635L12.4302 9.04861C12.2013 9.27738 12.2013 9.6484 12.4302 9.87717C12.5447 9.99161 12.6946 10.0488 12.8445 10.0488C12.9945 10.0488 13.1445 9.99161 13.2589 9.87717L14.571 8.5651C15.1421 7.99393 15.1421 7.06467 14.571 6.49349Z" fill="#828282"/>
</svg>
