<svg width="18" height="31" viewBox="0 0 18 31" fill="none" xmlns="http://www.w3.org/2000/svg">
<path d="M17.6906 29.0104C17.8968 28.8044 17.9997 28.567 17.9997 28.2987C17.9997 28.031 17.8968 27.7938 17.6906 27.5878L5.53608 15.4327L17.6909 3.27814C17.8971 3.072 18 2.83477 18 2.56677C18 2.29867 17.8971 2.06143 17.6909 1.8554L16.1444 0.309377C15.9382 0.102909 15.701 -1.00492e-07 15.4331 -1.12202e-07C15.1651 -1.23916e-07 14.9278 0.103234 14.7214 0.309377L0.30916 14.7213C0.103017 14.9273 -6.6287e-07 15.1647 -6.74584e-07 15.4327C-6.86299e-07 15.7007 0.103017 15.9376 0.30916 16.1435L14.7214 30.5566C14.9276 30.7627 15.1648 30.865 15.4326 30.865C15.7006 30.865 15.9375 30.762 16.144 30.5566L17.6906 29.0104Z" fill="#E0E0E0"/>
</svg>
