<svg width="36" height="35" viewBox="0 0 36 35" fill="none" xmlns="http://www.w3.org/2000/svg">
<path d="M16.8493 20.2481C17.0851 20.4839 17.3568 20.6015 17.6635 20.6015C17.9702 20.6015 18.2414 20.484 18.4771 20.2481L34.9735 3.75235C35.2094 3.51641 35.3265 3.24489 35.3265 2.93815C35.3265 2.63142 35.2086 2.35977 34.9735 2.12396L33.2038 0.353724C32.968 0.117784 32.6963 0 32.3892 0C32.0829 0 31.8114 0.117784 31.5755 0.353724L17.6635 14.2653L3.7521 0.353724C3.51616 0.117784 3.24464 0 2.9379 0C2.63105 0 2.35952 0.117784 2.12371 0.353724L0.354218 2.12396C0.117906 2.35977 0.00012207 2.63092 0.00012207 2.93815C0.00012207 3.24538 0.118278 3.51653 0.354218 3.75235L16.8493 20.2481Z" fill="#C61143"/>
<path d="M33.2036 13.9465C32.9678 13.7106 32.6962 13.5928 32.3891 13.5928C32.0827 13.5928 31.8112 13.7106 31.5754 13.9465L17.6633 27.8579L3.75192 13.9462C3.51598 13.7102 3.24445 13.5924 2.93772 13.5924C2.63086 13.5924 2.35934 13.7102 2.12352 13.9462L0.354035 15.7163C0.117723 15.9522 -6.10352e-05 16.2237 -6.10352e-05 16.5303C-6.10352e-05 16.8371 0.118095 17.1087 0.354035 17.3449L16.8491 33.8404C17.0849 34.0763 17.3566 34.1942 17.6633 34.1942C17.9701 34.1942 18.2412 34.0763 18.4769 33.8404L34.9734 17.3449C35.2092 17.109 35.3263 16.8374 35.3263 16.531C35.3263 16.2242 35.2084 15.9531 34.9734 15.7168L33.2036 13.9465Z" fill="#C61143"/>
</svg>
